<!-- Generated by IcoMoon.io -->
<svg version="1.1" xmlns="http://www.w3.org/2000/svg" width="32" height="32" viewBox="0 0 32 32">
<title>load</title>
<path d="M16 2c-7.732 0-14 6.268-14 14s6.268 14 14 14 14-6.268 14-14-6.268-14-14-14zM28.998 15.952c-3.808 1.889-8.19 1.875-11.971 0 3.625-2.404 5.958-6.273 6.398-10.608 3.352 2.343 5.557 6.22 5.573 10.608zM22.46 4.735c-0.273 4.234-2.484 8.022-5.989 10.353-0.268-4.347-2.447-8.296-5.983-10.845 1.677-0.789 3.54-1.243 5.512-1.243 2.352 0 4.555 0.638 6.46 1.735zM9.471 4.776c3.532 2.354 5.708 6.151 5.974 10.359-3.9-1.941-8.413-2.028-12.389-0.238 0.365-4.322 2.853-8.040 6.415-10.121zM3.002 16.047c3.808-1.887 8.192-1.873 11.972 0.001-3.628 2.405-5.96 6.27-6.4 10.607-3.352-2.343-5.556-6.22-5.572-10.608zM9.542 27.266c0.273-4.236 2.478-8.021 5.987-10.354 0.268 4.352 2.447 8.295 5.984 10.844-1.676 0.79-3.54 1.244-5.513 1.244-2.352 0-4.553-0.637-6.458-1.734zM22.531 27.222c-3.534-2.354-5.711-6.145-5.976-10.359 2.035 1.013 4.237 1.523 6.442 1.523 2.025 0 4.045-0.455 5.949-1.314-0.357 4.334-2.845 8.064-6.415 10.15z"></path>
</svg>
